<svg xmlns="http://www.w3.org/2000/svg" viewBox="0 0 36.02 36.02">
  <path d="M693.07,543.84a18,18,0,1,1,18-18A18,18,0,0,1,693.07,543.84Zm0-34a16,16,0,1,0,16,16A16,16,0,0,0,693.07,509.83Z" transform="translate(-675.07 -507.83)"/>
  <path d="m 17.214849,8.8891422 v 0.4911231 c -2.923352,0.2338681 -4.911232,1.9644927 -4.911232,4.4668817 0,2.64271 1.590304,3.928985 5.004779,4.817684 v 4.607203 c -1.286275,-0.233868 -2.362068,-0.771765 -3.461249,-1.566917 -0.210481,-0.163707 -0.491123,-0.257255 -0.771765,-0.257255 -0.724991,0 -1.286275,0.561284 -1.286275,1.286275 0,0.491123 0.233869,0.865312 0.631444,1.122567 1.426596,1.005633 3.040287,1.637078 4.794298,1.824172 v 1.449983 c 0,0.561283 0.467736,1.005633 1.02902,1.005633 0.561283,0 1.005633,-0.44435 1.005633,-1.005633 V 25.72765 c 2.970125,-0.280642 4.981392,-1.98788 4.981392,-4.560429 0,-2.50239 -1.520144,-3.928986 -5.07494,-4.817685 v -4.490268 c 0.795152,0.187094 1.590304,0.537897 2.408843,1.02902 0.233868,0.140321 0.467736,0.210481 0.701604,0.210481 0.724991,0 1.309662,-0.561284 1.309662,-1.286275 0,-0.561283 -0.327416,-0.912086 -0.701605,-1.122567 C 21.798665,10.011709 20.629324,9.5673598 19.249502,9.4036521 V 8.8891422 c 0,-0.5612836 -0.44435,-1.0056331 -1.005633,-1.0056331 -0.561284,0 -1.02902,0.4443495 -1.02902,1.0056331 z m 4.2564,12.4417858 c 0,1.122567 -0.818538,1.870946 -2.315295,2.034653 v -4.2564 c 1.800785,0.561283 2.315295,1.192727 2.315295,2.221747 z m -6.407987,-7.647489 c 0,-1.029019 0.748378,-1.824171 2.245134,-1.964492 v 4.139466 c -1.800785,-0.58467 -2.245134,-1.192727 -2.245134,-2.174974 z" />
</svg>
